<svg width="491" height="487" viewBox="0 0 491 487" fill="none" xmlns="http://www.w3.org/2000/svg">
<path d="M265.061 314.236V312.633C265.061 312.137 264.714 311.735 264.287 311.735H232.21C230.592 311.735 229.28 313.257 229.28 315.136V317.87C229.28 319.749 230.592 321.271 232.21 321.271H264.287C264.714 321.271 265.061 320.868 265.061 320.373V318.769C265.061 318.274 264.714 317.871 264.287 317.871H233.388C232.737 317.871 232.209 317.259 232.209 316.505C232.209 315.749 232.737 315.138 233.388 315.138H264.287C264.714 315.136 265.061 314.733 265.061 314.236Z" fill="#6277D7"/>
<path d="M263.675 315.136V317.87H233.388C232.737 317.87 232.209 317.258 232.209 316.504C232.209 315.748 232.737 315.137 233.388 315.137H263.675V315.136Z" fill="#D2DCFF"/>
<path d="M262.769 304.702V303.099C262.769 302.603 262.422 302.2 261.995 302.2H234.501C232.883 302.2 231.571 303.723 231.571 305.6V308.335C231.571 310.212 232.883 311.735 234.501 311.735H261.995C262.422 311.735 262.769 311.333 262.769 310.837V309.234C262.769 308.738 262.422 308.336 261.995 308.336H235.68C235.029 308.336 234.501 307.723 234.501 306.969C234.501 306.214 235.029 305.601 235.68 305.601H261.995C262.422 305.6 262.769 305.198 262.769 304.702Z" fill="#FE9ECC"/>
<path d="M261.75 305.6V308.335H235.68C235.029 308.335 234.501 307.722 234.501 306.968C234.501 306.213 235.029 305.6 235.68 305.6H261.75Z" fill="#FFD9E8"/>
<path d="M239.465 327.563L222.468 487H219.093L236.09 327.563H239.465Z" fill="#D2DCFF"/>
<path d="M284.126 487H280.751L266.21 350.598L263.754 327.563H267.129L269.55 350.271L284.126 487Z" fill="#D2DCFF"/>
<path d="M70.224 327.563L65.677 370.219L53.227 487H49.852L62.266 370.553L66.849 327.563H70.224Z" fill="#D2DCFF"/>
<path d="M114.885 487H111.51L98.716 366.986L94.513 327.563H97.888L102.056 366.659L114.885 487Z" fill="#D2DCFF"/>
<path d="M66.849 327.563H70.224L65.677 370.219L62.266 370.553L66.849 327.563Z" fill="#AEC3FF"/>
<path d="M97.888 327.563L102.056 366.659L98.716 366.986L94.513 327.563H97.888Z" fill="#AEC3FF"/>
<path d="M269.55 350.271L266.21 350.598L263.754 327.563H267.129L269.55 350.271Z" fill="#AEC3FF"/>
<path d="M276.527 327.563H103.962V321.271H276.527C277.773 321.271 278.783 322.443 278.783 323.888V324.945C278.784 326.39 277.773 327.563 276.527 327.563Z" fill="#D2DCFF"/>
<path d="M103.962 327.563H58.303C57.057 327.563 56.047 326.391 56.047 324.945V323.888C56.047 322.443 57.057 321.271 58.303 321.271H103.962V327.563Z" fill="#86A2E2"/>
<path d="M103.924 305.97H119.061C119.808 305.97 120.386 306.727 120.298 307.586L119.018 319.997C118.943 320.723 118.412 321.27 117.781 321.27H105.205C104.574 321.27 104.043 320.723 103.968 319.997L102.688 307.586C102.599 306.727 103.178 305.97 103.924 305.97Z" fill="#D2DCFF"/>
<path d="M116.689 300.906V295.262L113.779 301.677V291.26L111.493 297.818L109.206 291.26V301.677L106.296 295.262V300.906L102.056 292.996L103.924 305.97H111.493H119.061L120.929 292.996L116.689 300.906Z" fill="#6277D7"/>
<path d="M225.849 305.151H131.149L141.707 239.118H236.407L225.849 305.151Z" fill="#D2DCFF"/>
<path d="M178.035 275.986H188.671L202.674 321.27H184.094L178.035 275.986Z" fill="#86A2E2"/>
<path d="M177.652 318.363H146.042C145.466 318.363 144.999 318.905 144.999 319.572V320.061C144.999 320.729 145.466 321.27 146.042 321.27H177.652C178.228 321.27 178.695 320.728 178.695 320.061V319.572C178.694 318.904 178.227 318.363 177.652 318.363Z" fill="#86A2E2"/>
<path d="M178.035 275.986V305.151H181.937L178.035 275.986Z" fill="#AEC3FF"/>
<path d="M325.472 388.472L335.716 487H339.075L328.832 388.472H325.472Z" fill="#D2DCFF"/>
<path d="M370.739 388.471L371.892 399.552L380.982 486.999H384.342L375.206 399.118L374.099 388.471H370.739Z" fill="#D2DCFF"/>
<path d="M325.472 486.999H328.832L330.248 473.372L331.928 457.215L337.453 404.07L339.075 388.471H335.715L334.047 404.515L330.248 441.056L328.569 457.213L325.472 486.999Z" fill="#D2DCFF"/>
<path d="M280.205 486.999H283.565L291.515 410.524H291.516L293.808 388.471H290.448L288.111 410.95L280.205 486.999Z" fill="#D2DCFF"/>
<path d="M373.935 322.607H370.575V382.207H373.935V322.607Z" fill="#D2DCFF"/>
<path d="M328.283 322.607H324.924V382.207H328.283V322.607Z" fill="#D2DCFF"/>
<path d="M289.038 382.207H335.197C333.706 382.207 332.497 383.608 332.497 385.338C332.497 387.068 333.706 388.471 335.197 388.471H289.038C287.547 388.471 286.338 387.068 286.338 385.338C286.338 383.608 287.547 382.207 289.038 382.207Z" fill="#D2DCFF"/>
<path d="M332.498 385.338C332.498 383.608 333.707 382.207 335.198 382.207H370.505H375.053C376.544 382.207 377.753 383.608 377.753 385.338C377.753 387.068 376.544 388.471 375.053 388.471H370.505H335.197C333.706 388.471 332.498 387.068 332.498 385.338Z" fill="#86A2E2"/>
<path d="M322.179 277.755H376.68C378.758 277.755 380.443 279.71 380.443 282.12V318.241C380.443 320.652 378.758 322.607 376.68 322.607H322.179C320.101 322.607 318.416 320.652 318.416 318.241V282.12C318.416 279.709 320.101 277.755 322.179 277.755Z" fill="#D2DCFF"/>
<path d="M370.739 388.471L371.891 399.552C373.105 399.393 374.214 399.248 375.205 399.119L374.098 388.471H370.739Z" fill="#AEC3FF"/>
<path d="M335.715 388.471L334.047 404.516C335.188 404.368 336.324 404.218 337.453 404.071L339.075 388.471H335.715Z" fill="#AEC3FF"/>
<path d="M288.111 410.95C289.195 410.815 290.332 410.674 291.515 410.524H291.516L293.808 388.471H290.448L288.111 410.95Z" fill="#AEC3FF"/>
<path d="M373.935 322.607H370.575V330.839L373.935 330.407V322.607Z" fill="#AEC3FF"/>
<path d="M324.924 322.607V336.702L328.283 336.27V322.607H324.924Z" fill="#AEC3FF"/>
<path d="M306.732 229.374C307.979 246.929 318.971 257.935 325.422 257.935C326.39 257.935 327.444 257.735 328.544 257.384V266.14H344.906V243.878C345.057 243.418 345.204 242.907 345.348 242.363C352.602 241.559 352.301 227.651 347.991 227.651C347.207 227.651 346.683 228.51 346.353 229.376L345.283 230.617V224.333C345.283 224.333 342.876 224.596 338.136 216.217C336.091 219.816 319.78 225.468 306.691 222.937C306.691 222.937 306.657 226.062 306.732 229.374Z" fill="#FCBEB7"/>
<path d="M326.551 199.109C337.835 199.109 340.092 206.092 340.092 206.092C344.907 206.092 352.279 216.304 347.84 227.649L347.817 227.676L345.282 230.617V224.333C345.282 224.333 342.875 224.596 338.135 216.217C336.09 219.816 319.779 225.468 306.69 222.937C306.69 222.937 306.656 226.062 306.731 229.374C306.731 229.378 306.731 229.381 306.731 229.385C301.843 212.976 311.656 199.109 326.551 199.109Z" fill="#311643"/>
<path d="M331.403 234.167C331.902 234.167 332.306 233.699 332.306 233.12V231.163C332.306 230.584 331.902 230.116 331.403 230.116C330.904 230.116 330.5 230.584 330.5 231.163V233.12C330.5 233.699 330.905 234.167 331.403 234.167Z" fill="#311643"/>
<path d="M314.665 234.167C315.164 234.167 315.568 233.699 315.568 233.12V231.163C315.568 230.584 315.164 230.116 314.665 230.116C314.166 230.116 313.762 230.584 313.762 231.163V233.12C313.762 233.699 314.166 234.167 314.665 234.167Z" fill="#311643"/>
<path d="M324.766 246.392C326.377 246.392 327.474 245.689 328.139 245.049C328.977 244.241 329.325 243.361 329.34 243.324C329.434 243.082 329.341 242.798 329.133 242.689C328.925 242.58 328.681 242.688 328.586 242.928C328.539 243.047 327.395 245.831 324.07 245.384C323.843 245.355 323.638 245.542 323.611 245.807C323.584 246.071 323.747 246.308 323.974 246.338C324.251 246.375 324.515 246.392 324.766 246.392Z" fill="#311643"/>
<path d="M337.396 242.851C339.861 242.851 341.86 240.533 341.86 237.672C341.86 234.812 339.861 232.493 337.396 232.493C334.931 232.493 332.932 234.812 332.932 237.672C332.932 240.533 334.931 242.851 337.396 242.851Z" fill="#F49795"/>
<path d="M307.196 233.373C307.762 236.851 308.71 240.022 309.909 242.845C312.27 242.709 314.147 240.445 314.147 237.672C314.147 234.813 312.149 232.494 309.684 232.494C308.763 232.493 307.907 232.818 307.196 233.373Z" fill="#F49795"/>
<path d="M308.34 229.261C308.34 233.308 311.178 236.599 314.665 236.599C318.073 236.599 320.858 233.456 320.984 229.538C322.876 228.296 324.56 229.188 325.083 229.532C325.207 233.454 327.993 236.599 331.402 236.599C334.89 236.599 337.727 233.308 337.727 229.261C337.727 225.214 334.889 221.923 331.402 221.923C328.144 221.923 325.454 224.795 325.114 228.472C324.288 228.032 322.725 227.508 320.953 228.475C320.614 224.796 317.923 221.923 314.664 221.923C311.177 221.923 308.34 225.214 308.34 229.261ZM325.905 229.261C325.905 225.743 328.371 222.882 331.403 222.882C334.435 222.882 336.901 225.743 336.901 229.261C336.901 232.777 334.435 235.64 331.403 235.64C328.372 235.64 325.905 232.779 325.905 229.261ZM309.167 229.261C309.167 225.743 311.633 222.882 314.665 222.882C317.697 222.882 320.163 225.743 320.163 229.261C320.163 232.777 317.697 235.64 314.665 235.64C311.633 235.64 309.167 232.779 309.167 229.261Z" fill="white"/>
<path d="M328.545 266.14V257.384C332.245 256.204 336.457 253.314 339.623 250.559L328.545 266.14Z" fill="#F9AFAB"/>
<path d="M282.056 415.818L285.473 415.275L288.707 384.156H285.348L282.056 415.818Z" fill="#EBEDF4"/>
<path d="M291.13 296.898L288.163 303.498H303.977L291.13 296.898Z" fill="#FCBEB7"/>
<path d="M321.42 469.792V484C321.42 485.657 320.262 486.999 318.834 486.999H284.1C283.77 486.999 283.502 486.688 283.502 486.305V483.686C283.502 482.423 284.137 481.274 285.127 480.749L305.211 469.791H321.42V469.792Z" fill="#2F3D6C"/>
<path d="M321.42 461.709L321.411 469.792H305.212L304.091 461.709H321.42Z" fill="#FCBEB7"/>
<path d="M328.573 257.882L306.58 269.407C303.556 270.992 301.095 273.738 299.613 277.183L291.13 296.897L303.977 303.496L302.913 347.074H366.933L364.138 306.375L375.716 306.462V284.194C375.716 277.297 372.144 271.076 366.658 268.418L344.907 257.881C344.906 257.882 335.404 265.117 328.573 257.882Z" fill="#89AEFF"/>
<path d="M323.31 260.533C326.782 263.908 331.122 265.746 335.705 265.746C340.53 265.746 345.287 263.511 348.843 259.789L348.143 259.451C344.739 262.915 340.274 264.978 335.704 264.978C331.39 264.978 327.3 263.292 323.991 260.19L323.31 260.533Z" fill="white"/>
<path d="M287.333 469.792V484C287.333 485.657 286.175 486.999 284.747 486.999H250.013C249.683 486.999 249.415 486.688 249.415 486.305V483.686C249.415 482.423 250.05 481.274 251.04 480.749L271.124 469.791H287.333V469.792Z" fill="#2F3D6C"/>
<path d="M287.333 461.709L287.325 469.792H271.125L270.005 461.709H287.333Z" fill="#FCBEB7"/>
<path d="M332.848 347.075L332.849 347.834C332.862 366.92 319.529 382.401 303.077 382.401H289.247L287.333 461.706H270.004L257.227 367.148C255.802 356.602 262.829 347.074 272.028 347.074H332.848V347.075Z" fill="#6277D7"/>
<path d="M257.044 364.498C258.536 367.03 261.047 368.693 263.892 368.693C268.473 368.693 272.186 364.385 272.186 359.07C272.186 353.967 268.761 349.791 264.433 349.468C259.964 352.525 257.02 358.186 257.044 364.498Z" fill="#4A5EA3"/>
<path d="M291.132 364.127L289.247 382.402H300.594L291.132 364.127Z" fill="#4A5EA3"/>
<path d="M366.935 347.075V347.834C366.948 366.92 353.615 382.401 337.163 382.401H323.333L321.419 461.706H304.09L291.313 367.148C289.888 356.602 296.915 347.074 306.114 347.074H366.935V347.075Z" fill="#6277D7"/>
<path d="M375.715 306.463L375.099 331.144C374.933 337.814 370.224 343.122 364.472 343.122H327.441L324.955 333.074L357.619 326.827L357.85 306.329L375.715 306.463Z" fill="#FCBEB7"/>
<path d="M364.733 337.989C364.733 339.94 365.489 341.687 366.68 342.855C370.508 341.917 373.584 338.588 374.675 334.259C373.678 332.659 372.056 331.619 370.224 331.619C367.191 331.617 364.733 334.471 364.733 337.989Z" fill="#F9AFAB"/>
<path d="M357.85 306.33L352.835 327.742L357.619 326.827L357.85 306.33Z" fill="#4A62D3"/>
<path d="M329.518 332.201L335.356 343.122H327.441L324.955 333.074L329.518 332.201Z" fill="#F9AFAB"/>
<path d="M265.885 303.498H314.171C316.223 303.498 318.027 305.074 318.593 307.362L327.441 343.121H347.021C347.962 343.121 348.725 344.006 348.725 345.098C348.725 346.19 347.962 347.075 347.021 347.075H328.419H322.504H270.56L261.463 310.308C260.619 306.897 262.826 303.498 265.885 303.498Z" fill="#4A5EA3"/>
<path d="M291.132 364.127C292.593 366.868 295.207 368.693 298.189 368.693C302.77 368.693 306.483 364.385 306.483 359.07C306.483 353.891 302.957 349.667 298.537 349.456C294.145 352.451 291.222 357.956 291.132 364.127Z" fill="#4A5EA3"/>
<path d="M292.719 329.872C293.705 329.772 294.402 328.337 294.275 326.667C294.149 324.997 293.247 323.724 292.261 323.825C291.275 323.926 290.578 325.361 290.705 327.031C290.832 328.701 291.733 329.973 292.719 329.872Z" fill="#89AEFF"/>
<path d="M366.002 277.481C366.002 280.593 368.177 283.116 370.859 283.116C372.794 283.116 374.463 281.804 375.244 279.906C374.558 276.83 373.145 274.045 371.183 271.86C371.076 271.851 370.968 271.847 370.859 271.847C368.176 271.847 366.002 274.37 366.002 277.481Z" fill="#4A62D3"/>
<path d="M299.913 276.524C300.687 277.129 301.619 277.481 302.622 277.481C305.304 277.481 307.478 274.958 307.478 271.847C307.478 270.902 307.278 270.011 306.923 269.229L306.58 269.409C303.751 270.89 301.416 273.388 299.913 276.524Z" fill="#4A62D3"/>
<path d="M73.291 432.169H26.032V486.999H73.291V432.169Z" fill="#D2DCFF"/>
<path d="M26.033 432.169H0V486.999H26.033V432.169Z" fill="#AEC3FF"/>
<path d="M26.033 441.544H0V443.15H26.033V441.544Z" fill="#86A2E2"/>
<path d="M73.291 441.544H26.032V443.15H73.291V441.544Z" fill="#AEC3FF"/>
<path d="M58.357 451H40.967C40.637 451 40.369 450.689 40.369 450.306V450.266C40.369 449.883 40.637 449.572 40.967 449.572H58.357C58.687 449.572 58.955 449.883 58.955 450.266V450.306C58.955 450.689 58.687 451 58.357 451Z" fill="#86A2E2"/>
<path d="M472.098 430.467L447.951 416.875L437.799 441.152L461.946 454.744L472.098 430.467Z" fill="#4A5EA3"/>
<path d="M446.756 420.334L420.129 424.229L423.039 451L449.666 447.105L446.756 420.334Z" fill="#4A5EA3"/>
<path d="M480.685 432.169H433.426V486.999H480.685V432.169Z" fill="#D2DCFF"/>
<path d="M433.426 432.169H407.393V486.999H433.426V432.169Z" fill="#AEC3FF"/>
<path d="M407.393 432.169L393.87 448.976H423.243L433.426 432.169H407.393Z" fill="#86A2E2"/>
<path d="M480.686 432.169L490.337 449.193H443.147L433.426 432.089L480.686 432.169Z" fill="#AEC3FF"/>
<path d="M443.452 421.002L441.552 432.105L446.687 420.528L443.452 421.002Z" fill="#2F3D6C"/>
<path d="M226.78 105.64H124.683C121.197 105.64 118.371 102.361 118.371 98.3168V7.32322C118.371 3.27875 121.197 0 124.683 0H226.78C230.266 0 233.092 3.27875 233.092 7.32322V98.3168C233.091 102.361 230.265 105.64 226.78 105.64Z" fill="#D2DCFF"/>
<path d="M226.78 135.551H124.683C121.197 135.551 118.371 132.272 118.371 128.228V87.1742H233.091V128.228C233.091 132.272 230.265 135.551 226.78 135.551Z" fill="#6277D7"/>
<path d="M194.914 105.64H137.584C136.641 105.64 135.877 104.754 135.877 103.659C135.877 102.565 136.641 101.679 137.584 101.679H194.914C195.857 101.679 196.621 102.565 196.621 103.659C196.621 104.752 195.857 105.64 194.914 105.64Z" fill="#D2DCFF"/>
<path d="M167.872 116.44H137.584C136.641 116.44 135.877 115.554 135.877 114.46C135.877 113.366 136.641 112.479 137.584 112.479H167.872C168.815 112.479 169.579 113.366 169.579 114.46C169.579 115.554 168.815 116.44 167.872 116.44Z" fill="#D2DCFF"/>
<path d="M211.765 45.0714H181.477C180.534 45.0714 179.77 44.185 179.77 43.0909C179.77 41.9969 180.534 41.1107 181.477 41.1107H211.765C212.708 41.1107 213.472 41.9969 213.472 43.0909C213.472 44.185 212.708 45.0714 211.765 45.0714Z" fill="#6277D7"/>
<path d="M196.762 55.873H181.477C180.534 55.873 179.77 54.9866 179.77 53.8925C179.77 52.7984 180.534 51.912 181.477 51.912H196.762C197.705 51.912 198.469 52.7984 198.469 53.8925C198.469 54.9866 197.704 55.873 196.762 55.873Z" fill="#6277D7"/>
<path d="M152.484 66.141C152.484 64.7835 153.433 63.6823 154.603 63.6823C146.358 63.6823 139.65 55.8998 139.65 46.3339C139.65 36.7681 146.358 28.9853 154.603 28.9853C162.848 28.9853 169.556 36.7681 169.556 46.3339C169.556 44.9765 170.505 43.8753 171.675 43.8753C172.845 43.8753 173.794 44.9765 173.794 46.3339C173.794 34.0567 165.185 24.0697 154.604 24.0697C144.022 24.0697 135.414 34.0578 135.414 46.3339C135.414 58.6101 144.023 68.5982 154.604 68.5982C153.432 68.5993 152.484 67.4984 152.484 66.141Z" fill="#89AEFF"/>
<path d="M171.674 43.8765C170.504 43.8765 169.555 44.9777 169.555 46.3351C169.555 55.901 162.847 63.6835 154.602 63.6835C153.432 63.6835 152.483 64.7835 152.483 66.1421C152.483 67.4996 153.432 68.6005 154.602 68.6005C165.184 68.6005 173.792 58.6123 173.792 46.3362C173.793 44.9776 172.844 43.8765 171.674 43.8765Z" fill="#6277D7"/>
<path d="M258.343 86.6858V131.183C258.343 133.595 260.028 135.551 262.107 135.551H322.871C324.95 135.551 326.635 133.595 326.635 131.183V86.6858H258.343Z" fill="#89AEFF"/>
<path d="M265.035 68.5693H319.944C322.208 68.5693 324.044 72.0485 324.044 76.339V114.554C324.044 118.846 322.208 122.324 319.944 122.324H265.035C262.771 122.324 260.935 118.844 260.935 114.554V76.339C260.936 72.0485 262.771 68.5693 265.035 68.5693Z" fill="#D2DCFF"/>
<path d="M322.872 135.551H262.108C260.029 135.551 258.344 133.595 258.344 131.183V86.6858L292.491 115.679L326.638 86.6858V131.183C326.636 133.595 324.951 135.551 322.872 135.551Z" fill="#6277D7"/>
<path d="M307.501 85.1497H277.478C276.535 85.1497 275.771 84.2633 275.771 83.1692C275.771 82.0752 276.535 81.1887 277.478 81.1887H307.501C308.444 81.1887 309.208 82.0752 309.208 83.1692C309.208 84.2633 308.444 85.1497 307.501 85.1497Z" fill="#89AEFF"/>
<path d="M300.059 93.9705H284.921C283.978 93.9705 283.214 93.0843 283.214 91.9903C283.214 90.8962 283.978 90.0098 284.921 90.0098H300.059C301.002 90.0098 301.766 90.8962 301.766 91.9903C301.765 93.0832 301.001 93.9705 300.059 93.9705Z" fill="#89AEFF"/>
</svg>
