<svg width="41" height="41" viewBox="0 0 41 41" fill="none" xmlns="http://www.w3.org/2000/svg">
<path fill-rule="evenodd" clip-rule="evenodd" d="M0.5 3.84182C0.5 2.95552 0.852084 2.10551 1.4788 1.4788C2.10551 0.852088 2.95551 0.500004 3.84182 0.500004L37.1545 0.500004C37.5938 0.499287 38.0288 0.58521 38.4348 0.752853C38.8408 0.920496 39.2097 1.16657 39.5204 1.47698C39.8312 1.78739 40.0777 2.15605 40.2458 2.56184C40.4138 2.96763 40.5002 3.4026 40.5 3.84182V37.1545C40.5005 37.5939 40.4143 38.029 40.2465 38.4349C40.0786 38.8409 39.8324 39.2098 39.5218 39.5206C39.2113 39.8313 38.8425 40.0777 38.4366 40.2458C38.0307 40.4139 37.5957 40.5002 37.1564 40.5H3.84182C3.40281 40.5 2.96811 40.4135 2.56254 40.2454C2.15697 40.0774 1.78849 39.8311 1.47815 39.5206C1.16781 39.2101 0.921694 38.8414 0.753859 38.4358C0.586024 38.0301 0.499762 37.5954 0.5 37.1564L0.5 3.84182ZM16.3327 15.7509H21.7491V18.4709C22.5309 16.9073 24.5309 15.5 27.5364 15.5C33.2982 15.5 34.6636 18.6145 34.6636 24.3291V34.9145H28.8327V25.6309C28.8327 22.3764 28.0509 20.54 26.0655 20.54C23.3109 20.54 22.1655 22.52 22.1655 25.6309V34.9145H16.3327V15.7509ZM6.33273 34.6655H12.1655L12.1655 15.5H6.33273V34.6636V34.6655ZM13 9.24909C13.011 9.7485 12.9221 10.2451 12.7386 10.7097C12.5551 11.1743 12.2806 11.5975 11.9313 11.9546C11.582 12.3117 11.1649 12.5954 10.7045 12.7891C10.244 12.9828 9.74953 13.0826 9.25 13.0826C8.75047 13.0826 8.25598 12.9828 7.79554 12.7891C7.33509 12.5954 6.91798 12.3117 6.56867 11.9546C6.21936 11.5975 5.9449 11.1743 5.76138 10.7097C5.57787 10.2451 5.489 9.7485 5.5 9.24909C5.52159 8.26883 5.92615 7.33599 6.62706 6.65034C7.32797 5.9647 8.2695 5.58076 9.25 5.58076C10.2305 5.58076 11.172 5.9647 11.8729 6.65034C12.5738 7.33599 12.9784 8.26883 13 9.24909Z" fill="#FEFEFE"/>
</svg>
