<svg width="90" height="90" viewBox="0 0 90 90" fill="none" xmlns="http://www.w3.org/2000/svg">
<path d="M45 84.3749C43.9376 84.3753 42.8938 84.0959 41.9737 83.5649L32.3437 77.8639C30.9065 77.0596 31.6068 76.7755 32.0822 76.6096C33.6107 76.1374 35.0742 75.476 36.4387 74.6408C36.5529 74.588 36.6787 74.5652 36.8042 74.5745C36.9297 74.5839 37.0508 74.6251 37.1559 74.6943L44.5556 79.0902C44.6934 79.1631 44.8469 79.2012 45.0028 79.2012C45.1587 79.2012 45.3122 79.1631 45.45 79.0902L74.3062 62.4346C74.4413 62.3537 74.5529 62.2391 74.6304 62.102C74.7078 61.9649 74.7482 61.8101 74.7478 61.6527V28.3358C74.7479 28.1759 74.7068 28.0187 74.6285 27.8793C74.5501 27.7399 74.4372 27.623 74.3006 27.5399L45.4443 10.8983C45.3083 10.8217 45.1547 10.7814 44.9986 10.7814C44.8424 10.7814 44.6889 10.8217 44.5528 10.8983L15.7134 27.5455C15.5758 27.6269 15.4616 27.7424 15.3818 27.8808C15.302 28.0193 15.2593 28.176 15.2578 28.3358V61.6386C15.2582 61.7957 15.3003 61.9498 15.3799 62.0852C15.4595 62.2206 15.5736 62.3325 15.7106 62.4093L23.625 66.9768C27.914 69.1199 30.5409 66.5943 30.5409 64.0574V31.1764C30.5409 30.9527 30.6298 30.7381 30.788 30.5798C30.9463 30.4216 31.1609 30.3327 31.3847 30.3327H35.0409C35.2647 30.3327 35.4793 30.4216 35.6375 30.5798C35.7958 30.7381 35.8847 30.9527 35.8847 31.1764V64.0602C35.8847 69.7836 32.7684 73.0602 27.3403 73.0602C24.9985 73.101 22.6935 72.4747 20.6943 71.2546L13.109 66.9036C12.1882 66.3674 11.4241 65.599 10.8931 64.6751C10.3621 63.7512 10.0827 62.7042 10.0828 61.6386V28.3358C10.08 27.2686 10.3583 26.2194 10.8895 25.2937C11.4207 24.368 12.1862 23.5985 13.109 23.0624L41.9681 6.40113C42.8977 5.89254 43.9403 5.62598 45 5.62598C46.0596 5.62598 47.1022 5.89254 48.0318 6.40113L76.8881 23.0624C77.8088 23.5976 78.5731 24.3649 79.1046 25.2878C79.6361 26.2106 79.9163 27.2568 79.9172 28.3218V61.6386C79.9156 62.7042 79.6352 63.7509 79.1038 64.6745C78.5724 65.5982 77.8085 66.3667 76.8881 66.9036L48.0318 83.5649C47.11 84.0967 46.0642 84.3761 45 84.3749Z" fill="#83CD29"/>
<path d="M39.5269 50.4927C39.5269 50.2689 39.6157 50.0543 39.774 49.8961C39.9322 49.7379 40.1468 49.649 40.3706 49.649H44.1028C44.3022 49.6496 44.495 49.7209 44.6468 49.8501C44.7987 49.9793 44.8999 50.1582 44.9325 50.3549C45.495 54.1546 47.1825 56.0699 54.8128 56.0699C60.8906 56.0699 63.4809 54.6946 63.4809 51.4687C63.4809 49.6096 62.7469 48.2287 53.2997 47.3033C45.4022 46.5215 40.5197 44.7721 40.5197 38.4608C40.5197 32.639 45.4275 29.1655 53.654 29.1655C62.8987 29.1655 67.4747 32.3746 68.054 39.2596C68.0629 39.3745 68.0481 39.4901 68.0106 39.5991C67.973 39.7081 67.9135 39.8082 67.8358 39.8934C67.7581 39.9785 67.6637 40.0468 67.5585 40.094C67.4534 40.1413 67.3396 40.1664 67.2244 40.168H63.4669C63.2784 40.1654 63.0962 40.0997 62.9494 39.9814C62.8025 39.8632 62.6996 39.6991 62.6569 39.5155C61.7597 35.519 59.5631 34.2421 53.6569 34.2421C47.0194 34.2421 46.2487 36.554 46.2487 38.2865C46.2487 40.3846 47.16 40.9977 56.1206 42.1818C64.9884 43.3546 69.2015 45.014 69.2015 51.2465C69.2015 57.5352 63.959 61.1352 54.8156 61.1352C42.1734 61.1521 39.5269 55.3555 39.5269 50.4927Z" fill="#83CD29"/>
</svg>
