<svg width="90" height="79" viewBox="0 0 90 79" fill="none" xmlns="http://www.w3.org/2000/svg">
<path d="M45 0C33.0001 0 25.4999 8.75515 22.5 26.2649C27 17.5098 32.2499 14.2267 38.25 16.4156C41.6732 17.6642 44.12 21.2884 46.8285 25.2995C51.2406 31.8344 56.3467 39.3974 67.5 39.3974C79.4999 39.3974 87.0001 30.6423 90 13.1325C85.5 21.8876 80.2501 25.1707 74.25 22.9818C70.8268 21.7332 68.38 18.109 65.6715 14.0979C61.2594 7.56297 56.1533 0 45 0ZM22.5 39.3974C10.5001 39.3974 2.99988 48.1526 0 65.6623C4.5 56.9072 9.74988 53.6241 15.75 55.813C19.1732 57.0616 21.62 60.6858 24.3285 64.6969C28.7406 71.2318 33.8467 78.7948 45 78.7948C56.9999 78.7948 64.5001 70.0397 67.5 52.5299C63 61.285 57.7501 64.5681 51.75 62.3792C48.3268 61.1306 45.88 57.5064 43.1715 53.4953C38.7594 46.9604 33.6533 39.3974 22.5 39.3974Z" fill="url(#paint0_linear_669_984)"/>
<defs>
<linearGradient id="paint0_linear_669_984" x1="-2.5002" y1="25.2143" x2="87.083" y2="60.6128" gradientUnits="userSpaceOnUse">
<stop stop-color="#2298BD"/>
<stop offset="1" stop-color="#0ED7B5"/>
</linearGradient>
</defs>
</svg>
