<svg width="90" height="90" viewBox="0 0 90 90" fill="none" xmlns="http://www.w3.org/2000/svg">
<path d="M0 0H90V90H0V0Z" fill="#F7DF1E"/>
<path d="M23.6644 75.2104L30.5515 71.0423C31.8804 73.3981 33.0891 75.3914 35.9884 75.3914C38.7675 75.3914 40.5201 74.3044 40.5201 70.0758V41.3187H48.9776V70.1954C48.9776 78.9552 43.8427 82.9427 36.3509 82.9427C29.5851 82.9427 25.6578 79.4386 23.6641 75.2097M53.5715 74.3041L60.4579 70.317C62.2709 73.2775 64.6271 75.4523 68.7952 75.4523C72.2999 75.4523 74.5345 73.7001 74.5345 71.2834C74.5345 68.3837 72.2388 67.3565 68.3723 65.6655L66.2583 64.7584C60.1562 62.1614 56.1087 58.8989 56.1087 52.0118C56.1087 45.6682 60.9416 40.835 68.4936 40.835C73.8704 40.835 77.7368 42.7081 80.5156 47.6015L73.9301 51.8308C72.4799 49.2331 70.9098 48.2062 68.4932 48.2062C66.0161 48.2062 64.4453 49.777 64.4453 51.8308C64.4453 54.368 66.0161 55.3956 69.6407 56.9664L71.755 57.8724C78.9445 60.9538 82.992 64.095 82.992 71.1629C82.992 78.7756 77.0112 82.9437 68.9762 82.9437C61.1227 82.9437 56.0479 79.1982 53.5711 74.3044" fill="black"/>
</svg>
