<svg width="40" height="40" viewBox="0 0 40 40" fill="none" xmlns="http://www.w3.org/2000/svg">
<path d="M20 37.5C19.5278 37.5002 19.0639 37.376 18.655 37.14L14.375 34.6063C13.7362 34.2488 14.0475 34.1225 14.2587 34.0488C14.9381 33.8389 15.5885 33.5449 16.195 33.1738C16.2457 33.1503 16.3016 33.1401 16.3574 33.1443C16.4132 33.1484 16.467 33.1668 16.5137 33.1975L19.8025 35.1513C19.8637 35.1837 19.9319 35.2006 20.0012 35.2006C20.0705 35.2006 20.1387 35.1837 20.2 35.1513L33.025 27.7488C33.085 27.7128 33.1346 27.6619 33.169 27.6009C33.2034 27.54 33.2214 27.4712 33.2212 27.4013V12.5938C33.2213 12.5227 33.203 12.4528 33.1682 12.3908C33.1334 12.3289 33.0832 12.2769 33.0225 12.24L20.1975 4.84375C20.137 4.80969 20.0687 4.7918 19.9993 4.7918C19.9299 4.7918 19.8617 4.80969 19.8012 4.84375L6.98371 12.2425C6.92257 12.2787 6.8718 12.33 6.83633 12.3915C6.80085 12.4531 6.78187 12.5227 6.78121 12.5938V27.395C6.78139 27.4648 6.80011 27.5333 6.83548 27.5935C6.87084 27.6537 6.92157 27.7034 6.98246 27.7375L10.5 29.7675C12.4062 30.72 13.5737 29.5975 13.5737 28.47V13.8563C13.5737 13.7568 13.6132 13.6614 13.6835 13.5911C13.7539 13.5208 13.8493 13.4813 13.9487 13.4813H15.5737C15.6732 13.4813 15.7685 13.5208 15.8389 13.5911C15.9092 13.6614 15.9487 13.7568 15.9487 13.8563V28.4713C15.9487 31.015 14.5637 32.4713 12.1512 32.4713C11.1104 32.4894 10.086 32.211 9.19746 31.6688L5.82621 29.735C5.41694 29.4967 5.07736 29.1552 4.84134 28.7445C4.60533 28.3339 4.48116 27.8686 4.48121 27.395V12.5938C4.47999 12.1194 4.60365 11.6531 4.83974 11.2417C5.07583 10.8303 5.41605 10.4883 5.82621 10.25L18.6525 2.845C19.0656 2.61896 19.529 2.50049 20 2.50049C20.4709 2.50049 20.9343 2.61896 21.3475 2.845L34.1725 10.25C34.5817 10.4879 34.9213 10.8289 35.1576 11.2391C35.3938 11.6492 35.5183 12.1142 35.5187 12.5875V27.395C35.518 27.8686 35.3934 28.3338 35.1572 28.7443C34.921 29.1548 34.5815 29.4963 34.1725 29.735L21.3475 37.14C20.9378 37.3764 20.473 37.5006 20 37.5V37.5Z" fill="#83CD29"/>
<path d="M17.5675 22.4412C17.5675 22.3417 17.607 22.2463 17.6773 22.176C17.7477 22.1057 17.843 22.0662 17.9425 22.0662H19.6013C19.6899 22.0664 19.7755 22.0981 19.843 22.1555C19.9106 22.213 19.9555 22.2925 19.97 22.3799C20.22 24.0687 20.97 24.9199 24.3613 24.9199C27.0625 24.9199 28.2138 24.3087 28.2138 22.8749C28.2138 22.0487 27.8875 21.4349 23.6888 21.0237C20.1788 20.6762 18.0088 19.8987 18.0088 17.0937C18.0088 14.5062 20.19 12.9624 23.8463 12.9624C27.955 12.9624 29.9888 14.3887 30.2463 17.4487C30.2502 17.4997 30.2436 17.5511 30.2269 17.5995C30.2102 17.648 30.1838 17.6925 30.1493 17.7303C30.1147 17.7682 30.0728 17.7985 30.026 17.8195C29.9793 17.8405 29.9287 17.8517 29.8775 17.8524H28.2075C28.1237 17.8512 28.0428 17.822 27.9775 17.7695C27.9123 17.7169 27.8665 17.644 27.8475 17.5624C27.4488 15.7862 26.4725 15.2187 23.8475 15.2187C20.8975 15.2187 20.555 16.2462 20.555 17.0162C20.555 17.9487 20.96 18.2212 24.9425 18.7474C28.8838 19.2687 30.7563 20.0062 30.7563 22.7762C30.7563 25.5712 28.4263 27.1712 24.3625 27.1712C18.7438 27.1787 17.5675 24.6024 17.5675 22.4412V22.4412Z" fill="#83CD29"/>
</svg>
