<svg width="40" height="40" viewBox="0 0 40 40" fill="none" xmlns="http://www.w3.org/2000/svg">
<g clip-path="url(#clip0_668_947)">
<path d="M32.888 12.9518C32.4623 12.7878 32.033 12.6359 31.6005 12.4962C31.6731 12.1628 31.74 11.8335 31.7994 11.51C32.7741 6.19758 32.1369 1.91776 29.9605 0.508635C27.8737 -0.842242 24.4611 0.566354 21.0145 3.93425C20.6749 4.26676 20.3427 4.60886 20.0184 4.96021C19.8013 4.72658 19.5804 4.49747 19.3558 4.27302C15.7436 0.671968 12.123 -0.845751 9.94891 0.567407C7.86406 1.92249 7.24672 5.94583 8.12422 10.9806C8.21152 11.4792 8.31009 11.9753 8.41984 12.4683C7.90734 12.6318 7.41281 12.8058 6.93953 12.9911C2.70453 14.649 0 17.2471 0 19.942C0 22.7253 2.90344 25.5171 7.31438 27.2099C7.67198 27.3465 8.03256 27.4732 8.39578 27.5897C8.27782 28.1207 8.17309 28.6553 8.08172 29.1928C7.24516 34.1402 7.89844 38.0685 9.97766 39.4149C12.1252 40.8055 15.7295 39.3764 19.2391 35.9316C19.5236 35.6516 19.802 35.3636 20.0738 35.0679C20.4249 35.4484 20.7855 35.8178 21.155 36.1756C24.5547 39.4602 27.9122 40.7865 29.9894 39.4364C32.1348 38.0418 32.8322 33.8218 31.9269 28.6876C31.8556 28.2854 31.7756 27.8851 31.687 27.4872C31.9402 27.403 32.1886 27.3164 32.4308 27.2262C37.0164 25.5204 40 22.7625 40 19.942C40 17.2372 37.2081 14.6216 32.888 12.9518V12.9518ZM31.8934 25.4051C31.6747 25.4864 31.4503 25.5648 31.2216 25.6411C30.7153 23.8416 30.0322 21.9283 29.1961 19.9513C29.9939 18.0214 30.6508 16.1325 31.1428 14.3448C31.552 14.4778 31.9491 14.6179 32.3319 14.7658C36.0334 16.1967 38.2912 18.312 38.2912 19.942C38.2912 21.6781 35.8528 23.932 31.8934 25.4051V25.4051ZM30.2506 29.0602C30.6509 31.3304 30.708 33.383 30.4428 34.9878C30.2047 36.4297 29.7256 37.3909 29.1331 37.776C27.8727 38.5953 25.1769 37.5304 22.2695 34.7213C21.9258 34.3885 21.5904 34.0451 21.2637 33.6914C22.3909 32.3074 23.5173 30.6985 24.6167 28.9114C26.5505 28.7188 28.3773 28.4037 30.0341 27.9737C30.1139 28.3339 30.1861 28.6962 30.2506 29.0602V29.0602ZM13.6369 37.6344C12.4053 38.1227 11.4244 38.1367 10.8314 37.7528C9.56969 36.9358 9.04516 33.7816 9.76062 29.5507C9.84567 29.0508 9.94305 28.5536 10.0527 28.0597C11.6911 28.4667 13.5047 28.7593 15.443 28.9358C16.5498 30.6844 17.7087 32.2916 18.8767 33.699C18.6285 33.9687 18.3744 34.2314 18.1147 34.4871C16.5627 36.0102 15.0075 37.0909 13.6369 37.6344V37.6344ZM7.86719 25.3944C5.91672 24.6458 4.30594 23.673 3.20188 22.6114C2.20969 21.6576 1.70891 20.7104 1.70891 19.942C1.70891 18.3065 3.88031 16.2206 7.50203 14.8028C7.94156 14.6309 8.40156 14.4686 8.87891 14.3164C9.37953 16.1444 10.0361 18.0558 10.8284 19.9886C10.0258 21.95 9.35984 23.892 8.85437 25.7416C8.52283 25.635 8.19367 25.5192 7.86719 25.3944V25.3944ZM9.80125 10.612C9.04953 6.29846 9.54875 3.0446 10.8052 2.22793C12.1433 1.35811 15.1023 2.59828 18.2212 5.70776C18.4246 5.91098 18.6247 6.11833 18.8214 6.32969C17.6592 7.73091 16.5109 9.32618 15.4139 11.0644C13.5327 11.2602 11.7319 11.5746 10.0762 11.9958C9.97424 11.5373 9.88255 11.0759 9.80125 10.6121V10.612ZM27.0555 15.3958C26.6644 14.6374 26.2588 13.8885 25.8391 13.1497C27.1153 13.3309 28.3381 13.5714 29.4864 13.8655C29.1417 15.1062 28.712 16.4032 28.2063 17.733C27.8366 16.9454 27.4529 16.1662 27.0555 15.3958V15.3958ZM20.0192 7.70091C20.8073 8.65969 21.5967 9.73004 22.3731 10.8914C20.7981 10.8079 19.2205 10.8076 17.6455 10.8904C18.4227 9.73969 19.2188 8.67074 20.0192 7.70091ZM12.9378 15.409C12.5454 16.1732 12.1689 16.9475 11.8086 17.7314C11.3111 16.4064 10.8853 15.1034 10.5377 13.8451C11.6789 13.5585 12.8959 13.3241 14.1641 13.1462C13.7396 13.8895 13.3307 14.6439 12.9378 15.4088V15.409ZM14.2005 26.8742C12.8903 26.71 11.655 26.4878 10.5141 26.2088C10.8672 24.9281 11.3023 23.5974 11.8106 22.2439C12.1723 23.0284 12.5504 23.8032 12.9445 24.5678C13.3498 25.3537 13.7695 26.1235 14.2005 26.8742ZM20.0664 32.3181C19.2564 31.3371 18.4486 30.2516 17.6597 29.0842C18.4256 29.1179 19.2064 29.1351 20 29.1351C20.8153 29.1351 21.6213 29.1146 22.4145 29.0749C21.6356 30.2634 20.8492 31.3504 20.0664 32.3181ZM28.2223 22.1748C28.757 23.5432 29.2077 24.8669 29.5655 26.1257C28.4058 26.4228 27.1536 26.6621 25.8342 26.8399C26.257 26.0873 26.6664 25.3254 27.0622 24.5546C27.4646 23.7711 27.8514 22.9776 28.2223 22.1748V22.1748ZM25.582 23.596C24.9761 24.7778 24.3361 25.9372 23.6631 27.0723C22.444 27.1693 21.2222 27.2174 20 27.2167C18.7552 27.2167 17.5444 27.1732 16.3784 27.0883C15.6878 25.9558 15.0357 24.7944 14.4233 23.6065H14.4234C13.8139 22.425 13.2446 21.2178 12.7167 19.9878C13.2433 18.7574 13.8109 17.5497 14.4183 16.3672L14.4181 16.3674C15.0253 15.1846 15.6723 14.0282 16.3577 12.9006C17.5472 12.7995 18.767 12.7469 19.9998 12.7469H20C21.2384 12.7469 22.4598 12.8 23.6491 12.9018C24.3275 14.0277 24.9704 15.1802 25.5764 16.3571C26.1858 17.5369 26.7609 18.7387 27.3008 19.9606C26.7665 21.1949 26.1932 22.4075 25.582 23.596V23.596ZM29.107 2.17074C30.4464 3.03811 30.9673 6.53583 30.1258 11.1227C30.072 11.4153 30.0117 11.7134 29.9461 12.0157C28.2864 11.5855 26.4844 11.2657 24.5977 11.0669C23.4986 9.30951 22.3597 7.71179 21.2164 6.32863C21.516 6.00434 21.8228 5.68845 22.1364 5.38127C25.0895 2.49583 27.8495 1.35653 29.107 2.17074V2.17074ZM20 15.9314C21.9727 15.9314 23.5719 17.7271 23.5719 19.942C23.5719 22.1569 21.9727 23.9525 20 23.9525C18.0273 23.9525 16.4281 22.1569 16.4281 19.942C16.4281 17.7271 18.0273 15.9314 20 15.9314V15.9314Z" fill="#00D8FF"/>
</g>
<defs>
<clipPath id="clip0_668_947">
<rect width="40" height="40" fill="white"/>
</clipPath>
</defs>
</svg>
