<svg width="40" height="40" viewBox="0 0 40 40" fill="none" xmlns="http://www.w3.org/2000/svg">
<g clip-path="url(#clip0_669_984)">
<path d="M20 0C14.6667 0 11.3333 4.43299 10 13.2987C12 8.86571 14.3333 7.20338 17 8.31169C18.5214 8.9439 19.6089 10.779 20.8127 12.8099C22.7736 16.1187 25.043 19.9481 30 19.9481C35.3333 19.9481 38.6667 15.5151 40 6.64935C38 11.0823 35.6667 12.7447 33 11.6364C31.4786 11.0042 30.3911 9.16909 29.1873 7.13818C27.2264 3.82935 24.957 0 20 0ZM10 19.9481C4.66672 19.9481 1.33328 24.381 0 33.2468C2 28.8138 4.33328 27.1514 7 28.2597C8.52141 28.8919 9.60891 30.727 10.8127 32.7579C12.7736 36.0668 15.043 39.8961 20 39.8961C25.3333 39.8961 28.6667 35.4631 30 26.5974C28 31.0304 25.6667 32.6927 23 31.5844C21.4786 30.9522 20.3911 29.1171 19.1873 27.0862C17.2264 23.7774 14.957 19.9481 10 19.9481Z" fill="url(#paint0_linear_669_984)"/>
</g>
<defs>
<linearGradient id="paint0_linear_669_984" x1="-1.1112" y1="12.7668" x2="39.9771" y2="27.0182" gradientUnits="userSpaceOnUse">
<stop stop-color="#2298BD"/>
<stop offset="1" stop-color="#0ED7B5"/>
</linearGradient>
<clipPath id="clip0_669_984">
<rect width="40" height="40" fill="white"/>
</clipPath>
</defs>
</svg>
