<svg width="290" height="287" viewBox="0 0 290 287" fill="none" xmlns="http://www.w3.org/2000/svg">
<path d="M156.765 185.187V184.242C156.765 183.95 156.56 183.712 156.307 183.712H137.336C136.379 183.712 135.603 184.61 135.603 185.717V187.328C135.603 188.435 136.379 189.332 137.336 189.332H156.307C156.56 189.332 156.765 189.095 156.765 188.803V187.858C156.765 187.566 156.56 187.329 156.307 187.329H138.033C137.648 187.329 137.335 186.968 137.335 186.523C137.335 186.078 137.648 185.718 138.033 185.718H156.307C156.56 185.716 156.765 185.479 156.765 185.187Z" fill="#6277D7"/>
<path d="M155.945 185.717V187.328H138.033C137.648 187.328 137.335 186.967 137.335 186.523C137.335 186.078 137.648 185.717 138.033 185.717H155.945V185.717Z" fill="#D2DCFF"/>
<path d="M155.409 179.568V178.623C155.409 178.331 155.204 178.094 154.952 178.094H138.691C137.734 178.094 136.958 178.991 136.958 180.097V181.708C136.958 182.815 137.734 183.712 138.691 183.712H154.952C155.204 183.712 155.409 183.475 155.409 183.183V182.238C155.409 181.946 155.204 181.709 154.952 181.709H139.388C139.003 181.709 138.691 181.348 138.691 180.904C138.691 180.459 139.003 180.098 139.388 180.098H154.952C155.204 180.097 155.409 179.86 155.409 179.568Z" fill="#FE9ECC"/>
<path d="M154.807 180.097V181.708H139.388C139.003 181.708 138.691 181.347 138.691 180.903C138.691 180.458 139.003 180.097 139.388 180.097H154.807Z" fill="#FFD9E8"/>
<path d="M141.627 193.04L131.574 287H129.578L139.631 193.04H141.627Z" fill="#D2DCFF"/>
<path d="M168.041 287H166.045L157.445 206.616L155.992 193.04H157.988L159.42 206.423L168.041 287Z" fill="#D2DCFF"/>
<path d="M41.5326 193.04L38.8433 218.178L31.48 287H29.4839L36.826 218.375L39.5365 193.04H41.5326Z" fill="#D2DCFF"/>
<path d="M67.9464 287H65.9504L58.3836 216.273L55.8978 193.04H57.8939L60.359 216.081L67.9464 287Z" fill="#D2DCFF"/>
<path d="M39.5365 193.04H41.5326L38.8434 218.178L36.826 218.375L39.5365 193.04Z" fill="#AEC3FF"/>
<path d="M57.8939 193.04L60.359 216.081L58.3836 216.273L55.8978 193.04H57.8939Z" fill="#AEC3FF"/>
<path d="M159.42 206.423L157.445 206.616L155.992 193.04H157.988L159.42 206.423Z" fill="#AEC3FF"/>
<path d="M163.546 193.04H61.4862V189.332H163.546C164.283 189.332 164.881 190.023 164.881 190.875V191.497C164.881 192.349 164.283 193.04 163.546 193.04Z" fill="#D2DCFF"/>
<path d="M61.4863 193.04H34.4822C33.7452 193.04 33.1479 192.349 33.1479 191.497V190.875C33.1479 190.023 33.7452 189.332 34.4822 189.332H61.4863V193.04Z" fill="#86A2E2"/>
<path d="M61.4638 180.315H70.4163C70.858 180.315 71.1999 180.761 71.1478 181.267L70.3908 188.581C70.3465 189.009 70.0324 189.331 69.6592 189.331H62.2214C61.8482 189.331 61.5342 189.009 61.4898 188.581L60.7328 181.267C60.6801 180.761 61.0226 180.315 61.4638 180.315Z" fill="#D2DCFF"/>
<path d="M69.0133 177.33V174.005L67.2923 177.785V171.646L65.9403 175.511L64.5877 171.646V177.785L62.8666 174.005V177.33L60.3589 172.669L61.4637 180.315H65.9403H70.4162L71.521 172.669L69.0133 177.33Z" fill="#6277D7"/>
<path d="M133.574 179.832H77.5654L83.8097 140.917H139.818L133.574 179.832Z" fill="#D2DCFF"/>
<path d="M105.295 162.645H111.586L119.867 189.331H108.879L105.295 162.645Z" fill="#86A2E2"/>
<path d="M105.069 187.619H86.3736C86.033 187.619 85.7568 187.938 85.7568 188.331V188.619C85.7568 189.013 86.033 189.331 86.3736 189.331H105.069C105.409 189.331 105.686 189.012 105.686 188.619V188.331C105.685 187.937 105.409 187.619 105.069 187.619Z" fill="#86A2E2"/>
<path d="M105.295 162.645V179.832H107.603L105.295 162.645Z" fill="#AEC3FF"/>
<path d="M192.494 228.935L198.552 287H200.539L194.481 228.935H192.494Z" fill="#D2DCFF"/>
<path d="M219.266 228.935L219.948 235.465L225.324 286.999H227.311L221.908 235.209L221.253 228.935H219.266Z" fill="#D2DCFF"/>
<path d="M192.494 286.999H194.481L195.319 278.969L196.312 269.447L199.58 238.127L200.539 228.935H198.552L197.565 238.39L195.319 259.924L194.325 269.446L192.494 286.999Z" fill="#D2DCFF"/>
<path d="M165.722 286.999H167.709L172.411 241.931H172.411L173.767 228.935H171.78L170.397 242.182L165.722 286.999Z" fill="#D2DCFF"/>
<path d="M221.156 190.12H219.169V225.243H221.156V190.12Z" fill="#D2DCFF"/>
<path d="M194.156 190.12H192.17V225.243H194.156V190.12Z" fill="#D2DCFF"/>
<path d="M170.946 225.243H198.245C197.364 225.243 196.649 226.069 196.649 227.088C196.649 228.108 197.364 228.935 198.245 228.935H170.946C170.064 228.935 169.349 228.108 169.349 227.088C169.349 226.069 170.064 225.243 170.946 225.243Z" fill="#D2DCFF"/>
<path d="M196.649 227.088C196.649 226.069 197.364 225.243 198.246 225.243H219.128H221.818C222.699 225.243 223.414 226.069 223.414 227.088C223.414 228.108 222.699 228.935 221.818 228.935H219.128H198.245C197.364 228.935 196.649 228.108 196.649 227.088Z" fill="#86A2E2"/>
<path d="M190.546 163.687H222.78C224.009 163.687 225.005 164.839 225.005 166.259V187.547C225.005 188.968 224.009 190.12 222.78 190.12H190.546C189.317 190.12 188.321 188.968 188.321 187.547V166.259C188.321 164.839 189.317 163.687 190.546 163.687Z" fill="#D2DCFF"/>
<path d="M219.266 228.935L219.947 235.465C220.665 235.371 221.321 235.286 221.907 235.21L221.253 228.935H219.266Z" fill="#AEC3FF"/>
<path d="M198.552 228.935L197.565 238.391C198.24 238.303 198.912 238.215 199.58 238.128L200.539 228.935H198.552Z" fill="#AEC3FF"/>
<path d="M170.397 242.182C171.039 242.103 171.711 242.019 172.411 241.931H172.411L173.767 228.935H171.78L170.397 242.182Z" fill="#AEC3FF"/>
<path d="M221.156 190.12H219.169V194.971L221.156 194.716V190.12Z" fill="#AEC3FF"/>
<path d="M192.17 190.12V198.426L194.156 198.171V190.12H192.17Z" fill="#AEC3FF"/>
<path d="M181.41 135.175C182.148 145.521 188.649 152.007 192.464 152.007C193.037 152.007 193.66 151.889 194.311 151.682V156.842H203.988V143.723C204.077 143.451 204.164 143.151 204.249 142.83C208.539 142.356 208.361 134.16 205.812 134.16C205.349 134.16 205.039 134.666 204.843 135.176L204.211 135.908V132.205C204.211 132.205 202.787 132.359 199.984 127.421C198.774 129.542 189.127 132.873 181.386 131.382C181.386 131.382 181.366 133.223 181.41 135.175Z" fill="#FCBEB7"/>
<path d="M193.132 117.34C199.806 117.34 201.141 121.454 201.141 121.454C203.988 121.454 208.348 127.473 205.723 134.159L205.709 134.175L204.21 135.908V132.205C204.21 132.205 202.787 132.359 199.983 127.421C198.774 129.542 189.127 132.874 181.386 131.382C181.386 131.382 181.365 133.224 181.41 135.176C181.41 135.178 181.41 135.18 181.41 135.182C178.519 125.512 184.323 117.34 193.132 117.34Z" fill="#311643"/>
<path d="M196.002 138C196.297 138 196.536 137.724 196.536 137.383V136.23C196.536 135.889 196.297 135.613 196.002 135.613C195.707 135.613 195.468 135.889 195.468 136.23V137.383C195.468 137.724 195.707 138 196.002 138Z" fill="#311643"/>
<path d="M186.102 138C186.397 138 186.636 137.724 186.636 137.383V136.23C186.636 135.889 186.397 135.613 186.102 135.613C185.807 135.613 185.568 135.889 185.568 136.23V137.383C185.568 137.724 185.807 138 186.102 138Z" fill="#311643"/>
<path d="M192.076 145.205C193.029 145.205 193.678 144.79 194.071 144.413C194.567 143.937 194.773 143.418 194.782 143.396C194.837 143.254 194.782 143.086 194.659 143.022C194.536 142.958 194.392 143.022 194.336 143.163C194.308 143.233 193.631 144.874 191.665 144.61C191.53 144.593 191.409 144.703 191.393 144.859C191.377 145.015 191.474 145.155 191.608 145.173C191.772 145.194 191.928 145.205 192.076 145.205Z" fill="#311643"/>
<path d="M199.546 143.118C201.004 143.118 202.186 141.751 202.186 140.066C202.186 138.38 201.004 137.013 199.546 137.013C198.088 137.013 196.906 138.38 196.906 140.066C196.906 141.751 198.088 143.118 199.546 143.118Z" fill="#F49795"/>
<path d="M181.685 137.532C182.02 139.582 182.58 141.45 183.289 143.114C184.686 143.034 185.796 141.7 185.796 140.066C185.796 138.38 184.614 137.014 183.156 137.014C182.612 137.013 182.105 137.205 181.685 137.532Z" fill="#F49795"/>
<path d="M182.362 135.109C182.362 137.493 184.04 139.433 186.102 139.433C188.118 139.433 189.765 137.581 189.84 135.272C190.959 134.54 191.955 135.065 192.264 135.268C192.337 137.579 193.985 139.433 196.001 139.433C198.064 139.433 199.742 137.493 199.742 135.109C199.742 132.724 198.063 130.784 196.001 130.784C194.074 130.784 192.483 132.477 192.282 134.644C191.794 134.384 190.869 134.075 189.821 134.646C189.621 132.478 188.029 130.784 186.102 130.784C184.039 130.784 182.362 132.724 182.362 135.109ZM192.75 135.109C192.75 133.035 194.208 131.349 196.002 131.349C197.795 131.349 199.253 133.035 199.253 135.109C199.253 137.181 197.795 138.868 196.002 138.868C194.209 138.868 192.75 137.182 192.75 135.109ZM182.851 135.109C182.851 133.035 184.309 131.349 186.102 131.349C187.896 131.349 189.354 133.035 189.354 135.109C189.354 137.181 187.896 138.868 186.102 138.868C184.309 138.868 182.851 137.182 182.851 135.109Z" fill="white"/>
<path d="M194.311 156.842V151.682C196.5 150.987 198.991 149.284 200.863 147.66L194.311 156.842Z" fill="#F9AFAB"/>
<path d="M166.816 245.051L168.837 244.731L170.75 226.392H168.763L166.816 245.051Z" fill="#EBEDF4"/>
<path d="M172.183 174.969L170.428 178.858H179.781L172.183 174.969Z" fill="#FCBEB7"/>
<path d="M190.097 276.859V285.232C190.097 286.208 189.413 286.999 188.568 286.999H168.025C167.83 286.999 167.672 286.816 167.672 286.591V285.047C167.672 284.303 168.047 283.626 168.633 283.316L180.511 276.858H190.097V276.859Z" fill="#2F3D6C"/>
<path d="M190.097 272.095L190.092 276.859H180.512L179.849 272.095H190.097Z" fill="#FCBEB7"/>
<path d="M194.328 151.976L181.321 158.768C179.532 159.702 178.077 161.32 177.2 163.35L172.183 174.968L179.781 178.857L179.152 204.538H217.015L215.362 180.554L222.21 180.605V167.482C222.21 163.417 220.097 159.751 216.852 158.185L203.988 151.975C203.988 151.976 198.368 156.239 194.328 151.976Z" fill="#89AEFF"/>
<path d="M191.215 153.538C193.269 155.527 195.835 156.61 198.546 156.61C201.4 156.61 204.213 155.293 206.316 153.1L205.902 152.9C203.889 154.942 201.248 156.157 198.545 156.157C195.994 156.157 193.575 155.164 191.618 153.336L191.215 153.538Z" fill="white"/>
<path d="M169.937 276.859V285.232C169.937 286.208 169.252 286.999 168.408 286.999H147.865C147.67 286.999 147.511 286.816 147.511 286.591V285.047C147.511 284.303 147.887 283.626 148.473 283.316L160.351 276.858H169.937V276.859Z" fill="#2F3D6C"/>
<path d="M169.937 272.095L169.933 276.859H160.351L159.689 272.095H169.937Z" fill="#FCBEB7"/>
<path d="M196.856 204.539L196.857 204.986C196.865 216.234 188.979 225.357 179.249 225.357H171.069L169.937 272.094H159.688L152.132 216.368C151.289 210.154 155.445 204.538 160.886 204.538H196.856V204.539Z" fill="#6277D7"/>
<path d="M152.024 214.807C152.906 216.299 154.391 217.279 156.074 217.279C158.783 217.279 160.979 214.74 160.979 211.608C160.979 208.6 158.953 206.14 156.394 205.949C153.751 207.751 152.009 211.087 152.024 214.807Z" fill="#4A5EA3"/>
<path d="M172.184 214.589L171.069 225.358H177.78L172.184 214.589Z" fill="#4A5EA3"/>
<path d="M217.016 204.539V204.986C217.024 216.234 209.138 225.357 199.408 225.357H191.229L190.097 272.094H179.848L172.291 216.368C171.448 210.154 175.604 204.538 181.045 204.538H217.016V204.539Z" fill="#6277D7"/>
<path d="M222.209 180.606L221.845 195.151C221.747 199.081 218.962 202.21 215.56 202.21H193.658L192.188 196.288L211.507 192.607L211.643 180.526L222.209 180.606Z" fill="#FCBEB7"/>
<path d="M215.714 199.185C215.714 200.334 216.161 201.364 216.865 202.052C219.129 201.499 220.949 199.537 221.594 196.986C221.004 196.044 220.045 195.43 218.962 195.43C217.168 195.429 215.714 197.111 215.714 199.185Z" fill="#F9AFAB"/>
<path d="M211.643 180.527L208.677 193.146L211.507 192.606L211.643 180.527Z" fill="#4A62D3"/>
<path d="M194.887 195.774L198.34 202.209H193.658L192.188 196.288L194.887 195.774Z" fill="#F9AFAB"/>
<path d="M157.252 178.858H185.81C187.024 178.858 188.091 179.787 188.425 181.135L193.658 202.209H205.239C205.795 202.209 206.246 202.731 206.246 203.374C206.246 204.017 205.795 204.539 205.239 204.539H194.237H190.739H160.017L154.637 182.871C154.138 180.861 155.443 178.858 157.252 178.858Z" fill="#4A5EA3"/>
<path d="M172.184 214.589C173.048 216.203 174.594 217.279 176.358 217.279C179.067 217.279 181.263 214.74 181.263 211.608C181.263 208.556 179.178 206.066 176.564 205.942C173.966 207.707 172.237 210.952 172.184 214.589Z" fill="#4A5EA3"/>
<path d="M173.123 194.401C173.706 194.342 174.118 193.496 174.043 192.512C173.968 191.528 173.435 190.778 172.852 190.837C172.269 190.897 171.857 191.743 171.932 192.727C172.007 193.711 172.54 194.46 173.123 194.401Z" fill="#89AEFF"/>
<path d="M216.465 163.526C216.465 165.36 217.751 166.847 219.337 166.847C220.482 166.847 221.469 166.073 221.931 164.955C221.525 163.142 220.689 161.501 219.529 160.213C219.465 160.208 219.402 160.206 219.337 160.206C217.75 160.206 216.465 161.692 216.465 163.526Z" fill="#4A62D3"/>
<path d="M177.378 162.962C177.835 163.318 178.386 163.526 178.98 163.526C180.566 163.526 181.852 162.039 181.852 160.206C181.852 159.648 181.733 159.123 181.523 158.662L181.321 158.768C179.647 159.642 178.266 161.114 177.378 162.962Z" fill="#4A62D3"/>
<path d="M43.3465 254.687H15.3961V286.999H43.3465V254.687Z" fill="#D2DCFF"/>
<path d="M15.3967 254.687H0V286.999H15.3967V254.687Z" fill="#AEC3FF"/>
<path d="M15.3967 260.212H0V261.158H15.3967V260.212Z" fill="#86A2E2"/>
<path d="M43.3465 260.212H15.3961V261.158H43.3465V260.212Z" fill="#AEC3FF"/>
<path d="M34.5141 265.784H24.2291C24.0339 265.784 23.8754 265.601 23.8754 265.376V265.352C23.8754 265.126 24.0339 264.943 24.2291 264.943H34.5141C34.7092 264.943 34.8677 265.126 34.8677 265.352V265.376C34.8677 265.601 34.7092 265.784 34.5141 265.784Z" fill="#86A2E2"/>
<path d="M279.213 253.684L264.932 245.674L258.927 259.981L273.209 267.991L279.213 253.684Z" fill="#4A5EA3"/>
<path d="M264.225 247.712L248.477 250.008L250.198 265.785L265.946 263.489L264.225 247.712Z" fill="#4A5EA3"/>
<path d="M284.292 254.687H256.341V286.999H284.292V254.687Z" fill="#D2DCFF"/>
<path d="M256.341 254.687H240.944V286.999H256.341V254.687Z" fill="#AEC3FF"/>
<path d="M240.944 254.687L232.947 264.591H250.319L256.341 254.687H240.944Z" fill="#86A2E2"/>
<path d="M284.292 254.687L290 264.719H262.09L256.341 254.64L284.292 254.687Z" fill="#AEC3FF"/>
<path d="M262.271 248.106L261.147 254.649L264.184 247.827L262.271 248.106Z" fill="#2F3D6C"/>
<path d="M134.124 62.256H73.7412C71.6795 62.256 70.0081 60.3238 70.0081 57.9403V4.31574C70.0081 1.93224 71.6795 0 73.7412 0H134.124C136.186 0 137.858 1.93224 137.858 4.31574V57.9403C137.857 60.3238 136.186 62.256 134.124 62.256Z" fill="#D2DCFF"/>
<path d="M134.124 79.8833H73.7412C71.6795 79.8833 70.0081 77.9511 70.0081 75.5676V51.3737H137.857V75.5676C137.857 77.9511 136.186 79.8833 134.124 79.8833Z" fill="#6277D7"/>
<path d="M115.278 62.2559H81.3713C80.8135 62.2559 80.3617 61.7335 80.3617 61.0888C80.3617 60.444 80.8135 59.9216 81.3713 59.9216H115.278C115.836 59.9216 116.288 60.444 116.288 61.0888C116.288 61.7329 115.836 62.2559 115.278 62.2559Z" fill="#D2DCFF"/>
<path d="M99.2845 68.6209H81.3713C80.8135 68.6209 80.3617 68.0985 80.3617 67.4538C80.3617 66.809 80.8135 66.2866 81.3713 66.2866H99.2845C99.8422 66.2866 100.294 66.809 100.294 67.4538C100.294 68.0985 99.8422 68.6209 99.2845 68.6209Z" fill="#D2DCFF"/>
<path d="M125.244 26.5616H107.331C106.773 26.5616 106.321 26.0392 106.321 25.3944C106.321 24.7496 106.773 24.2274 107.331 24.2274H125.244C125.802 24.2274 126.254 24.7496 126.254 25.3944C126.254 26.0392 125.802 26.5616 125.244 26.5616Z" fill="#6277D7"/>
<path d="M116.371 32.9272H107.331C106.773 32.9272 106.321 32.4048 106.321 31.7601C106.321 31.1153 106.773 30.5929 107.331 30.5929H116.371C116.929 30.5929 117.381 31.1153 117.381 31.7601C117.381 32.4048 116.928 32.9272 116.371 32.9272Z" fill="#6277D7"/>
<path d="M90.1836 38.9784C90.1836 38.1784 90.7449 37.5294 91.4368 37.5294C86.5605 37.5294 82.5932 32.943 82.5932 27.3056C82.5932 21.6682 86.5605 17.0817 91.4368 17.0817C96.3132 17.0817 100.28 21.6682 100.28 27.3056C100.28 26.5057 100.842 25.8567 101.534 25.8567C102.226 25.8567 102.787 26.5057 102.787 27.3056C102.787 20.0704 97.6954 14.1848 91.4374 14.1848C85.1789 14.1848 80.0879 20.071 80.0879 27.3056C80.0879 34.5402 85.1795 40.4264 91.4374 40.4264C90.7443 40.4271 90.1836 39.7783 90.1836 38.9784Z" fill="#89AEFF"/>
<path d="M101.533 25.8574C100.841 25.8574 100.28 26.5064 100.28 27.3064C100.28 32.9437 96.3126 37.5301 91.4362 37.5301C90.7443 37.5301 90.183 38.1784 90.183 38.9791C90.183 39.779 90.7443 40.4278 91.4362 40.4278C97.6947 40.4278 102.786 34.5416 102.786 27.307C102.786 26.5064 102.225 25.8574 101.533 25.8574Z" fill="#6277D7"/>
<path d="M152.792 51.0859V77.3092C152.792 78.7307 153.788 79.8834 155.018 79.8834H190.956C192.185 79.8834 193.182 78.7307 193.182 77.3092V51.0859H152.792Z" fill="#89AEFF"/>
<path d="M156.75 40.4094H189.225C190.564 40.4094 191.649 42.4598 191.649 44.9882V67.5092C191.649 70.0384 190.564 72.088 189.225 72.088H156.75C155.411 72.088 154.325 70.0377 154.325 67.5092V44.9882C154.325 42.4598 155.411 40.4094 156.75 40.4094Z" fill="#D2DCFF"/>
<path d="M190.956 79.8834H155.019C153.789 79.8834 152.792 78.7307 152.792 77.3092V51.0859L172.988 68.1724L193.183 51.0859V77.3092C193.182 78.7307 192.186 79.8834 190.956 79.8834Z" fill="#6277D7"/>
<path d="M181.865 50.1806H164.109C163.551 50.1806 163.099 49.6582 163.099 49.0135C163.099 48.3687 163.551 47.8463 164.109 47.8463H181.865C182.423 47.8463 182.875 48.3687 182.875 49.0135C182.875 49.6582 182.423 50.1806 181.865 50.1806Z" fill="#89AEFF"/>
<path d="M177.464 55.3789H168.511C167.953 55.3789 167.501 54.8567 167.501 54.212C167.501 53.5672 167.953 53.0448 168.511 53.0448H177.464C178.022 53.0448 178.473 53.5672 178.473 54.212C178.473 54.856 178.021 55.3789 177.464 55.3789Z" fill="#89AEFF"/>
</svg>
