<svg width="41" height="41" viewBox="0 0 41 41" fill="none" xmlns="http://www.w3.org/2000/svg">
<path d="M20.5 0.5C9.45536 0.5 0.5 9.45536 0.5 20.5C0.5 31.5446 9.45536 40.5 20.5 40.5C31.5446 40.5 40.5 31.5446 40.5 20.5C40.5 9.45536 31.5446 0.5 20.5 0.5ZM30.1116 15.5759C30.125 15.7857 30.125 16.0045 30.125 16.2188C30.125 22.7723 25.1339 30.3214 16.0134 30.3214C13.2009 30.3214 10.5938 29.5045 8.39732 28.0982C8.79911 28.1429 9.18304 28.1607 9.59375 28.1607C11.9152 28.1607 14.0491 27.375 15.75 26.0446C13.5714 26 11.7411 24.5714 11.1161 22.6071C11.8795 22.7188 12.567 22.7188 13.3527 22.5179C12.2309 22.29 11.2227 21.6807 10.4992 20.7937C9.7757 19.9066 9.38164 18.7965 9.38393 17.6518V17.5893C10.0402 17.9598 10.8125 18.1875 11.6205 18.2188C10.9413 17.766 10.3842 17.1527 9.99871 16.4332C9.61323 15.7136 9.41127 14.9101 9.41071 14.0938C9.41071 13.1696 9.65179 12.3259 10.0848 11.5938C11.3299 13.1265 12.8836 14.3801 14.6449 15.2731C16.4062 16.166 18.3357 16.6784 20.308 16.7768C19.6071 13.4063 22.125 10.6786 25.1518 10.6786C26.5804 10.6786 27.8661 11.2768 28.7723 12.2411C29.8929 12.0313 30.9643 11.6116 31.9196 11.0491C31.5491 12.1964 30.7723 13.1652 29.7411 13.7768C30.7411 13.6696 31.7054 13.3929 32.5982 13.0045C31.9241 13.9955 31.0804 14.875 30.1116 15.5759Z" fill="#FEFEFE"/>
</svg>
