<svg width="90" height="90" viewBox="0 0 90 90" fill="none" xmlns="http://www.w3.org/2000/svg">
<path d="M34.1016 69.1406C34.1016 71.7188 32.2852 73.0078 28.6523 73.0078C24.4727 73.0078 22.3828 71.7773 22.3828 69.3164C22.3828 66.8164 24.2969 65.5664 28.125 65.5664C32.1094 65.5664 34.1016 66.7578 34.1016 69.1406ZM31.9922 41.8359C31.9922 45.1562 30.5469 46.8164 27.6562 46.8164C24.6484 46.8164 23.1445 45.1758 23.1445 41.8945C23.1445 38.3789 24.6484 36.6211 27.6562 36.6211C29.0625 36.6211 30.1367 37.1191 30.8789 38.1152C31.6211 39.1113 31.9922 40.3516 31.9922 41.8359ZM41.7188 37.4414V30.1172C38.6719 31.25 36.0352 31.8164 33.8086 31.8164C31.8555 30.6836 29.707 30.1172 27.3633 30.1172C24.0039 30.1172 21.1719 31.2305 18.8672 33.457C16.5625 35.6836 15.4102 38.4766 15.4102 41.8359C15.4102 43.7891 15.9863 45.7812 17.1387 47.8125C18.291 49.8438 19.7266 51.1523 21.4453 51.7383V51.9141C19.9609 52.5781 19.2188 54.2383 19.2188 56.8945C19.2188 58.9648 20.0195 60.4688 21.6211 61.4062V61.582C17.207 63.0273 15 65.7422 15 69.7266C15 71.4844 15.3906 73.0176 16.1719 74.3262C16.9531 75.6348 18.0078 76.6309 19.3359 77.3145C20.6641 77.998 22.0703 78.4961 23.5547 78.8086C25.0391 79.1211 26.6211 79.2773 28.3008 79.2773C37.0508 79.2773 41.4258 75.6055 41.4258 68.2617C41.4258 65.6445 40.4883 63.7109 38.6133 62.4609C36.7383 61.2109 34.2773 60.3125 31.2305 59.7656C30.1758 59.5703 29.1699 59.1699 28.2129 58.5645C27.2559 57.959 26.7773 57.1875 26.7773 56.25C26.7773 54.5312 27.7344 53.5156 29.6484 53.2031C32.6562 52.6172 35.0391 51.25 36.7969 49.1016C38.5547 46.9531 39.4336 44.3359 39.4336 41.25C39.4336 40.3125 39.2383 39.2969 38.8477 38.2031C40.293 37.8516 41.25 37.5977 41.7188 37.4414ZM45.1758 61.9922H53.2031C53.125 60.9375 53.0859 59.3359 53.0859 57.1875V34.5117C53.0859 32.7148 53.125 31.3672 53.2031 30.4688H45.1758C45.293 31.3672 45.3516 32.7539 45.3516 34.6289V57.5977C45.3516 59.5508 45.293 61.0156 45.1758 61.9922ZM75 61.0547V53.9648C73.8281 54.7852 72.5 55.1953 71.0156 55.1953C68.9453 55.1953 67.9102 53.5938 67.9102 50.3906V37.207H70.957C71.3086 37.207 71.8262 37.2266 72.5098 37.2656C73.1934 37.3047 73.7109 37.3242 74.0625 37.3242V30.4688H67.9102C67.9102 27.2656 67.9688 25.2734 68.0859 24.4922H59.8828C60.0391 25.4297 60.1172 26.5039 60.1172 27.7148V30.4688H56.6016V37.3242C58.0078 37.207 58.7305 37.1484 58.7695 37.1484C58.8867 37.1484 59.1016 37.1582 59.4141 37.1777C59.7266 37.1973 59.9609 37.207 60.1172 37.207V37.3242H60V50.0391C60 51.4844 60.0488 52.7344 60.1465 53.7891C60.2441 54.8438 60.4688 55.9473 60.8203 57.0996C61.1719 58.252 61.6504 59.1992 62.2559 59.9414C62.8613 60.6836 63.7109 61.2891 64.8047 61.7578C65.8984 62.2266 67.1875 62.4609 68.6719 62.4609C71.1719 62.4609 73.2812 61.9922 75 61.0547ZM54.1406 19.6875C54.1406 18.2812 53.6719 17.041 52.7344 15.9668C51.7969 14.8926 50.625 14.3555 49.2188 14.3555C47.8125 14.3555 46.6309 14.8828 45.6738 15.9375C44.7168 16.9922 44.2383 18.2422 44.2383 19.6875C44.2383 21.0938 44.7266 22.3145 45.7031 23.3496C46.6797 24.3848 47.8516 24.9023 49.2188 24.9023C50.5859 24.9023 51.748 24.375 52.7051 23.3203C53.6621 22.2656 54.1406 21.0547 54.1406 19.6875ZM90 16.875V73.125C90 77.7734 88.3496 81.748 85.0488 85.0488C81.748 88.3496 77.7734 90 73.125 90H16.875C12.2266 90 8.25195 88.3496 4.95117 85.0488C1.65039 81.748 0 77.7734 0 73.125V16.875C0 12.2266 1.65039 8.25195 4.95117 4.95117C8.25195 1.65039 12.2266 0 16.875 0H73.125C77.7734 0 81.748 1.65039 85.0488 4.95117C88.3496 8.25195 90 12.2266 90 16.875Z" fill="#E44D30"/>
</svg>
