<svg width="90" height="90" viewBox="0 0 90 90" fill="none" xmlns="http://www.w3.org/2000/svg">
<path d="M73.9979 29.1412C73.0401 28.7723 72.0742 28.4304 71.1011 28.1161C71.2645 27.3661 71.415 26.6252 71.5486 25.8973C73.7416 13.9443 72.308 4.31465 67.411 1.14412C62.7159 -1.89535 55.0375 1.27399 47.2827 8.85175C46.5184 9.59991 45.7711 10.3696 45.0415 11.1602C44.553 10.6345 44.056 10.119 43.5505 9.61399C35.4231 1.51162 27.2767 -1.90325 22.385 1.27636C17.6941 4.32531 16.3051 13.3778 18.2795 24.706C18.4759 25.8279 18.6977 26.944 18.9446 28.0533C17.7915 28.4212 16.6788 28.8128 15.6139 29.2296C6.08519 32.9599 0 38.8056 0 44.8691C0 51.1316 6.53273 57.4131 16.4573 61.2219C17.2619 61.5294 18.0733 61.8144 18.8905 62.0765C18.6251 63.2712 18.3894 64.4741 18.1839 65.6836C16.3016 76.8152 17.7715 85.6537 22.4497 88.6833C27.2816 91.812 35.3914 88.5965 43.2879 80.8458C43.9282 80.2157 44.5544 79.5677 45.1659 78.9025C45.9561 79.7586 46.7673 80.5897 47.5988 81.3949C55.248 88.7852 62.8024 91.7694 67.4761 88.7315C72.3034 85.5937 73.8724 76.0987 71.8355 64.5468C71.675 63.6417 71.4951 62.7412 71.2958 61.846C71.8653 61.6565 72.4243 61.4615 72.9693 61.2586C83.2869 57.4206 90 51.2153 90 44.8691C90 38.7835 83.7183 32.8983 73.9979 29.1412ZM71.7602 57.1612C71.268 57.344 70.7632 57.5204 70.2485 57.6922C69.1095 53.6433 67.5724 49.3383 65.6912 44.89C67.4863 40.5479 68.9643 36.2978 70.0713 32.2754C70.9921 32.5746 71.8854 32.89 72.7467 33.2228C81.0752 36.4423 86.1553 41.2016 86.1553 44.8691C86.1553 48.7754 80.6688 53.8466 71.7602 57.1612ZM68.0639 65.3852C68.9646 70.4931 69.0929 75.1115 68.4963 78.7221C67.9605 81.9665 66.8827 84.1293 65.5495 84.9957C62.7135 86.8391 56.648 84.4431 50.1064 78.1225C49.3331 77.3739 48.5785 76.6012 47.8434 75.8054C50.3796 72.6914 52.914 69.0712 55.3876 65.0504C59.7386 64.617 63.849 63.9081 67.5766 62.9406C67.7562 63.751 67.9187 64.5661 68.0639 65.3852ZM30.683 84.6771C27.912 85.7757 25.7048 85.8073 24.3707 84.9436C21.5318 83.1053 20.3516 76.0083 21.9614 66.4889C22.1528 65.364 22.3719 64.2452 22.6185 63.134C26.305 64.0498 30.3855 64.7082 34.7467 65.1053C37.2371 69.0396 39.8447 72.6558 42.4726 75.8224C41.9141 76.4292 41.3424 77.0204 40.758 77.5956C37.266 81.0227 33.7669 83.4543 30.683 84.6771ZM17.7012 57.1371C13.3126 55.4528 9.68836 53.264 7.20422 50.8754C4.9718 48.7293 3.84504 46.5981 3.84504 44.8691C3.84504 41.1894 8.7307 36.496 16.8796 33.3061C17.8685 32.9193 18.9035 32.5541 19.9775 32.2115C21.1039 36.3246 22.5812 40.6253 24.364 44.9741C22.558 49.3873 21.0596 53.7566 19.9223 57.9183C19.1764 57.6784 18.4358 57.4179 17.7012 57.1371ZM22.0528 23.8766C20.3614 14.1712 21.4847 6.85004 24.3116 5.01254C27.3224 3.05544 33.9803 5.84583 40.9978 12.8421C41.4554 13.2994 41.9056 13.7659 42.3482 14.2415C39.7332 17.3943 37.1496 20.9836 34.6813 24.8946C30.4485 25.3352 26.3967 26.0425 22.6716 26.9903C22.4421 25.9585 22.2357 24.9205 22.0528 23.877V23.8766ZM60.8748 34.6403C59.9949 32.9338 59.0824 31.2488 58.1379 29.5865C61.0095 29.9943 63.7608 30.5354 66.3444 31.197C65.5689 33.9886 64.6021 36.9069 63.4641 39.899C62.6322 38.1269 61.769 36.3737 60.8748 34.6403ZM45.0432 17.3268C46.8165 19.484 48.5926 21.8923 50.3395 24.5054C46.7958 24.3175 43.2461 24.3167 39.7023 24.5031C41.451 21.914 43.2422 19.5089 45.0432 17.3268ZM29.1101 34.6699C28.2271 36.3893 27.3799 38.1316 26.5693 39.8954C25.45 36.914 24.492 33.9823 23.7097 31.1512C26.2775 30.5062 29.0159 29.9789 31.8691 29.5786C30.9141 31.2511 29.9942 32.9485 29.1101 34.6695V34.6699ZM31.9511 60.4668C29.0032 60.0973 26.2238 59.5972 23.6566 58.9695C24.4512 56.0879 25.4303 53.0939 26.5739 50.0485C27.3877 51.8136 28.2384 53.5569 29.1252 55.2771C30.0371 57.0456 30.9814 58.7777 31.9511 60.4668ZM45.1494 72.7154C43.3269 70.5081 41.5093 68.0658 39.7343 65.4393C41.4577 65.515 43.2144 65.5537 45 65.5537C46.8345 65.5537 48.6478 65.5075 50.4327 65.4183C48.6802 68.0923 46.9107 70.5381 45.1494 72.7154ZM63.5003 49.8929C64.7033 52.9719 65.7172 55.9502 66.5223 58.7824C63.913 59.4511 61.0956 59.9895 58.127 60.3894C59.0782 58.6962 59.9994 56.9819 60.8899 55.2475C61.7953 53.4846 62.6656 51.6993 63.5003 49.8929ZM57.5596 53.0907C56.1963 55.7498 54.7563 58.3584 53.242 60.9124C50.499 61.1305 47.7499 61.2389 45 61.2373C42.1991 61.2373 39.4748 61.1394 36.8515 60.9483C35.2977 58.4002 33.8302 55.7871 32.4524 53.1144H32.4527C31.0814 50.4559 29.8004 47.7398 28.6126 44.9721C29.7974 42.2038 31.0744 39.4865 32.4411 36.826L32.4408 36.8264C33.8069 34.1651 35.2626 31.5631 36.8047 29.026C39.4812 28.7986 42.2258 28.6802 44.9996 28.6802H45C47.7865 28.6802 50.5346 28.7998 53.2104 29.0287C54.7369 31.5621 56.1833 34.1552 57.5469 36.8031C58.9182 39.4577 60.2121 42.1618 61.4268 44.911C60.2246 47.6882 58.9347 50.4165 57.5596 53.0907ZM65.4908 4.88386C68.5044 6.83544 69.6765 14.7053 67.783 25.0257C67.6621 25.6841 67.5264 26.3548 67.3787 27.0349C63.6444 26.067 59.5898 25.3474 55.3447 24.9002C52.8718 20.9461 50.3093 17.3512 47.7369 14.2391C48.4111 13.5095 49.1013 12.7987 49.8069 12.1075C56.4514 5.61531 62.6614 3.05189 65.4908 4.88386ZM45 35.8454C49.4385 35.8454 53.0367 39.8856 53.0367 44.8691C53.0367 49.8527 49.4385 53.8928 45 53.8928C40.5615 53.8928 36.9633 49.8527 36.9633 44.8691C36.9633 39.8856 40.5615 35.8454 45 35.8454Z" fill="#00D8FF"/>
</svg>
